<svg width="20" height="20" viewBox="0 0 20 20" fill="none" xmlns="http://www.w3.org/2000/svg">
<path d="M20 10C20 15.5228 15.5228 20 10 20C4.47715 20 0 15.5228 0 10C0 4.47715 4.47715 0 10 0C15.5228 0 20 4.47715 20 10ZM3 10C3 13.866 6.13401 17 10 17C13.866 17 17 13.866 17 10C17 6.13401 13.866 3 10 3C6.13401 3 3 6.13401 3 10Z" fill="black" fill-opacity="0.05"/>
<path d="M20 10C20 11.8665 19.4776 13.6957 18.492 15.2807C17.5064 16.8657 16.0969 18.1432 14.4229 18.9687C12.7489 19.7942 10.8773 20.1348 9.01983 19.9518C7.16235 19.7689 5.39315 19.0698 3.91239 17.9335C2.43162 16.7973 1.2984 15.2693 0.640941 13.5225C-0.0165209 11.7757 -0.171982 9.87969 0.192147 8.0491C0.556276 6.2185 1.42546 4.52634 2.70136 3.16408C3.97726 1.80181 5.60895 0.823817 7.41181 0.340742L8.18827 3.23852C6.92626 3.57667 5.78408 4.26127 4.89095 5.21485C3.99782 6.16844 3.38939 7.35295 3.1345 8.63437C2.87961 9.91579 2.98844 11.243 3.44866 12.4657C3.90888 13.6885 4.70213 14.7581 5.73867 15.5535C6.7752 16.3488 8.01365 16.8382 9.31388 16.9663C10.6141 17.0944 11.9242 16.856 13.096 16.2781C14.2678 15.7002 15.2545 14.806 15.9444 13.6965C16.6343 12.587 17 11.3065 17 10H20Z" fill="black"/>
</svg>
